<?xml version="1.0" encoding="UTF-8" standalone="no"?>
<!DOCTYPE svg PUBLIC "-//W3C//DTD SVG 1.1//EN"
 "http://www.w3.org/Graphics/SVG/1.1/DTD/svg11.dtd">
<!-- Generated by graphviz version 2.47.3 (20210619.1520)
 -->
<!-- Title: dependencies Pages: 1 -->
<svg width="334pt" height="247pt"
 viewBox="0.00 0.00 334.00 246.80" xmlns="http://www.w3.org/2000/svg" xmlns:xlink="http://www.w3.org/1999/xlink">
<g id="graph0" class="graph" transform="scale(1 1) rotate(0) translate(4 242.8)">
<title>dependencies</title>
<polygon fill="white" stroke="transparent" points="-4,4 -4,-242.8 330,-242.8 330,4 -4,4"/>
<text text-anchor="middle" x="163" y="-8.2" font-family="sans-serif" font-size="14.00">dependencies</text>
<g id="clust1" class="cluster">
<title>cluster_FeatureLoginModule</title>
<polygon fill="none" stroke="black" stroke-dasharray="1,5" points="8,-32.8 8,-230.8 318,-230.8 318,-32.8 8,-32.8"/>
</g>
<g id="clust4" class="cluster">
<title>cluster_FeatureLoginModule_imports</title>
<polygon fill="none" stroke="black" points="196,-40.8 196,-92.8 310,-92.8 310,-40.8 196,-40.8"/>
</g>
<g id="clust5" class="cluster">
<title>cluster_FeatureLoginModule_exports</title>
<polygon fill="none" stroke="black" points="75,-170.8 75,-222.8 251,-222.8 251,-170.8 75,-170.8"/>
</g>
<g id="clust2" class="cluster">
<title>cluster_FeatureLoginModule_declarations</title>
<polygon fill="none" stroke="black" points="16,-40.8 16,-92.8 188,-92.8 188,-40.8 16,-40.8"/>
</g>
<!-- FeatureLoginComponent -->
<g id="node1" class="node">
<title>FeatureLoginComponent</title>
<polygon fill="#ffffb3" stroke="black" points="180.25,-84.8 23.75,-84.8 23.75,-48.8 180.25,-48.8 180.25,-84.8"/>
<text text-anchor="middle" x="102" y="-62.6" font-family="Times,serif" font-size="14.00">FeatureLoginComponent</text>
</g>
<!-- FeatureLoginModule -->
<g id="node2" class="node">
<title>FeatureLoginModule</title>
<polygon fill="#8dd3c7" stroke="black" points="230.47,-149.8 227.47,-153.8 206.47,-153.8 203.47,-149.8 95.53,-149.8 95.53,-113.8 230.47,-113.8 230.47,-149.8"/>
<text text-anchor="middle" x="163" y="-127.6" font-family="Times,serif" font-size="14.00">FeatureLoginModule</text>
</g>
<!-- FeatureLoginComponent&#45;&gt;FeatureLoginModule -->
<g id="edge1" class="edge">
<title>FeatureLoginComponent&#45;&gt;FeatureLoginModule</title>
<path fill="none" stroke="black" d="M137.95,-84.91C137.95,-84.91 137.95,-103.79 137.95,-103.79"/>
<polygon fill="black" stroke="black" points="134.45,-103.79 137.95,-113.79 141.45,-103.79 134.45,-103.79"/>
</g>
<!-- FeatureLoginComponent  -->
<g id="node4" class="node">
<title>FeatureLoginComponent </title>
<polygon fill="#fb8072" stroke="black" points="243.25,-214.8 82.75,-214.8 82.75,-178.8 243.25,-178.8 243.25,-214.8"/>
<text text-anchor="middle" x="163" y="-192.6" font-family="Times,serif" font-size="14.00">FeatureLoginComponent </text>
</g>
<!-- FeatureLoginModule&#45;&gt;FeatureLoginComponent  -->
<g id="edge3" class="edge">
<title>FeatureLoginModule&#45;&gt;FeatureLoginComponent </title>
<path fill="none" stroke="black" stroke-dasharray="5,2" d="M163,-149.91C163,-149.91 163,-168.79 163,-168.79"/>
<polygon fill="black" stroke="black" points="159.5,-168.79 163,-178.79 166.5,-168.79 159.5,-168.79"/>
</g>
<!-- SharedModule -->
<g id="node3" class="node">
<title>SharedModule</title>
<polygon fill="#8dd3c7" stroke="black" points="302.42,-84.8 299.42,-88.8 278.42,-88.8 275.42,-84.8 203.58,-84.8 203.58,-48.8 302.42,-48.8 302.42,-84.8"/>
<text text-anchor="middle" x="253" y="-62.6" font-family="Times,serif" font-size="14.00">SharedModule</text>
</g>
<!-- SharedModule&#45;&gt;FeatureLoginModule -->
<g id="edge2" class="edge">
<title>SharedModule&#45;&gt;FeatureLoginModule</title>
<path fill="none" stroke="black" d="M217.14,-84.91C217.14,-84.91 217.14,-103.79 217.14,-103.79"/>
<polygon fill="black" stroke="black" points="213.64,-103.79 217.14,-113.79 220.64,-103.79 213.64,-103.79"/>
</g>
</g>
</svg>
