<?xml version="1.0" encoding="UTF-8" standalone="no"?>
<!DOCTYPE svg PUBLIC "-//W3C//DTD SVG 1.1//EN"
 "http://www.w3.org/Graphics/SVG/1.1/DTD/svg11.dtd">
<!-- Generated by graphviz version 2.47.3 (20210619.1520)
 -->
<!-- Title: dependencies Pages: 1 -->
<svg width="342pt" height="247pt"
 viewBox="0.00 0.00 342.00 246.80" xmlns="http://www.w3.org/2000/svg" xmlns:xlink="http://www.w3.org/1999/xlink">
<g id="graph0" class="graph" transform="scale(1 1) rotate(0) translate(4 242.8)">
<title>dependencies</title>
<polygon fill="white" stroke="transparent" points="-4,4 -4,-242.8 338,-242.8 338,4 -4,4"/>
<text text-anchor="middle" x="167" y="-8.2" font-family="sans-serif" font-size="14.00">dependencies</text>
<g id="clust1" class="cluster">
<title>cluster_FeatureEditionModule</title>
<polygon fill="none" stroke="black" stroke-dasharray="1,5" points="8,-32.8 8,-230.8 326,-230.8 326,-32.8 8,-32.8"/>
</g>
<g id="clust5" class="cluster">
<title>cluster_FeatureEditionModule_exports</title>
<polygon fill="none" stroke="black" points="75,-170.8 75,-222.8 259,-222.8 259,-170.8 75,-170.8"/>
</g>
<g id="clust4" class="cluster">
<title>cluster_FeatureEditionModule_imports</title>
<polygon fill="none" stroke="black" points="204,-40.8 204,-92.8 318,-92.8 318,-40.8 204,-40.8"/>
</g>
<g id="clust2" class="cluster">
<title>cluster_FeatureEditionModule_declarations</title>
<polygon fill="none" stroke="black" points="16,-40.8 16,-92.8 196,-92.8 196,-40.8 16,-40.8"/>
</g>
<!-- FeatureEditionComponent -->
<g id="node1" class="node">
<title>FeatureEditionComponent</title>
<polygon fill="#ffffb3" stroke="black" points="188.04,-84.8 23.96,-84.8 23.96,-48.8 188.04,-48.8 188.04,-84.8"/>
<text text-anchor="middle" x="106" y="-62.6" font-family="Times,serif" font-size="14.00">FeatureEditionComponent</text>
</g>
<!-- FeatureEditionModule -->
<g id="node2" class="node">
<title>FeatureEditionModule</title>
<polygon fill="#8dd3c7" stroke="black" points="238.25,-149.8 235.25,-153.8 214.25,-153.8 211.25,-149.8 95.75,-149.8 95.75,-113.8 238.25,-113.8 238.25,-149.8"/>
<text text-anchor="middle" x="167" y="-127.6" font-family="Times,serif" font-size="14.00">FeatureEditionModule</text>
</g>
<!-- FeatureEditionComponent&#45;&gt;FeatureEditionModule -->
<g id="edge1" class="edge">
<title>FeatureEditionComponent&#45;&gt;FeatureEditionModule</title>
<path fill="none" stroke="black" d="M141.95,-84.91C141.95,-84.91 141.95,-103.79 141.95,-103.79"/>
<polygon fill="black" stroke="black" points="138.45,-103.79 141.95,-113.79 145.45,-103.79 138.45,-103.79"/>
</g>
<!-- FeatureEditionComponent  -->
<g id="node4" class="node">
<title>FeatureEditionComponent </title>
<polygon fill="#fb8072" stroke="black" points="251.03,-214.8 82.97,-214.8 82.97,-178.8 251.03,-178.8 251.03,-214.8"/>
<text text-anchor="middle" x="167" y="-192.6" font-family="Times,serif" font-size="14.00">FeatureEditionComponent </text>
</g>
<!-- FeatureEditionModule&#45;&gt;FeatureEditionComponent  -->
<g id="edge3" class="edge">
<title>FeatureEditionModule&#45;&gt;FeatureEditionComponent </title>
<path fill="none" stroke="black" stroke-dasharray="5,2" d="M167,-149.91C167,-149.91 167,-168.79 167,-168.79"/>
<polygon fill="black" stroke="black" points="163.5,-168.79 167,-178.79 170.5,-168.79 163.5,-168.79"/>
</g>
<!-- SharedModule -->
<g id="node3" class="node">
<title>SharedModule</title>
<polygon fill="#8dd3c7" stroke="black" points="310.42,-84.8 307.42,-88.8 286.42,-88.8 283.42,-84.8 211.58,-84.8 211.58,-48.8 310.42,-48.8 310.42,-84.8"/>
<text text-anchor="middle" x="261" y="-62.6" font-family="Times,serif" font-size="14.00">SharedModule</text>
</g>
<!-- SharedModule&#45;&gt;FeatureEditionModule -->
<g id="edge2" class="edge">
<title>SharedModule&#45;&gt;FeatureEditionModule</title>
<path fill="none" stroke="black" d="M225.08,-84.91C225.08,-84.91 225.08,-103.79 225.08,-103.79"/>
<polygon fill="black" stroke="black" points="221.58,-103.79 225.08,-113.79 228.58,-103.79 221.58,-103.79"/>
</g>
</g>
</svg>
