<?xml version="1.0" encoding="UTF-8" standalone="no"?>
<!DOCTYPE svg PUBLIC "-//W3C//DTD SVG 1.1//EN"
 "http://www.w3.org/Graphics/SVG/1.1/DTD/svg11.dtd">
<!-- Generated by graphviz version 2.47.3 (20210619.1520)
 -->
<!-- Title: dependencies Pages: 1 -->
<svg width="567pt" height="247pt"
 viewBox="0.00 0.00 567.00 246.80" xmlns="http://www.w3.org/2000/svg" xmlns:xlink="http://www.w3.org/1999/xlink">
<g id="graph0" class="graph" transform="scale(1 1) rotate(0) translate(4 242.8)">
<title>dependencies</title>
<polygon fill="white" stroke="transparent" points="-4,4 -4,-242.8 563,-242.8 563,4 -4,4"/>
<text text-anchor="middle" x="279.5" y="-8.2" font-family="sans-serif" font-size="14.00">dependencies</text>
<g id="clust1" class="cluster">
<title>cluster_BaseModule</title>
<polygon fill="none" stroke="black" stroke-dasharray="1,5" points="8,-32.8 8,-230.8 551,-230.8 551,-32.8 8,-32.8"/>
</g>
<g id="clust2" class="cluster">
<title>cluster_BaseModule_declarations</title>
<polygon fill="none" stroke="black" points="21,-40.8 21,-92.8 538,-92.8 538,-40.8 21,-40.8"/>
</g>
<g id="clust7" class="cluster">
<title>cluster_BaseModule_exports</title>
<polygon fill="none" stroke="black" points="16,-170.8 16,-222.8 543,-222.8 543,-170.8 16,-170.8"/>
</g>
<!-- BaseFooterComponent -->
<g id="node1" class="node">
<title>BaseFooterComponent</title>
<polygon fill="#ffffb3" stroke="black" points="529.59,-84.8 384.41,-84.8 384.41,-48.8 529.59,-48.8 529.59,-84.8"/>
<text text-anchor="middle" x="457" y="-62.6" font-family="Times,serif" font-size="14.00">BaseFooterComponent</text>
</g>
<!-- BaseModule -->
<g id="node4" class="node">
<title>BaseModule</title>
<polygon fill="#8dd3c7" stroke="black" points="335.26,-149.8 332.26,-153.8 311.26,-153.8 308.26,-149.8 248.74,-149.8 248.74,-113.8 335.26,-113.8 335.26,-149.8"/>
<text text-anchor="middle" x="292" y="-127.6" font-family="Times,serif" font-size="14.00">BaseModule</text>
</g>
<!-- BaseFooterComponent&#45;&gt;BaseModule -->
<g id="edge1" class="edge">
<title>BaseFooterComponent&#45;&gt;BaseModule</title>
<path fill="none" stroke="black" d="M481.93,-84.82C481.93,-102.17 481.93,-125.8 481.93,-125.8 481.93,-125.8 345.57,-125.8 345.57,-125.8"/>
<polygon fill="black" stroke="black" points="345.57,-122.3 335.57,-125.8 345.57,-129.3 345.57,-122.3"/>
</g>
<!-- BaseHeaderComponent -->
<g id="node2" class="node">
<title>BaseHeaderComponent</title>
<polygon fill="#ffffb3" stroke="black" points="366.45,-84.8 217.55,-84.8 217.55,-48.8 366.45,-48.8 366.45,-84.8"/>
<text text-anchor="middle" x="292" y="-62.6" font-family="Times,serif" font-size="14.00">BaseHeaderComponent</text>
</g>
<!-- BaseHeaderComponent&#45;&gt;BaseModule -->
<g id="edge2" class="edge">
<title>BaseHeaderComponent&#45;&gt;BaseModule</title>
<path fill="none" stroke="black" d="M292,-84.91C292,-84.91 292,-103.79 292,-103.79"/>
<polygon fill="black" stroke="black" points="288.5,-103.79 292,-113.79 295.5,-103.79 288.5,-103.79"/>
</g>
<!-- BaseNavigationComponent -->
<g id="node3" class="node">
<title>BaseNavigationComponent</title>
<polygon fill="#ffffb3" stroke="black" points="199.25,-84.8 28.75,-84.8 28.75,-48.8 199.25,-48.8 199.25,-84.8"/>
<text text-anchor="middle" x="114" y="-62.6" font-family="Times,serif" font-size="14.00">BaseNavigationComponent</text>
</g>
<!-- BaseNavigationComponent&#45;&gt;BaseModule -->
<g id="edge3" class="edge">
<title>BaseNavigationComponent&#45;&gt;BaseModule</title>
<path fill="none" stroke="black" d="M141.63,-84.82C141.63,-102.17 141.63,-125.8 141.63,-125.8 141.63,-125.8 238.51,-125.8 238.51,-125.8"/>
<polygon fill="black" stroke="black" points="238.51,-129.3 248.51,-125.8 238.51,-122.3 238.51,-129.3"/>
</g>
<!-- BaseFooterComponent  -->
<g id="node5" class="node">
<title>BaseFooterComponent </title>
<polygon fill="#fb8072" stroke="black" points="535.09,-214.8 386.91,-214.8 386.91,-178.8 535.09,-178.8 535.09,-214.8"/>
<text text-anchor="middle" x="461" y="-192.6" font-family="Times,serif" font-size="14.00">BaseFooterComponent </text>
</g>
<!-- BaseModule&#45;&gt;BaseFooterComponent  -->
<g id="edge4" class="edge">
<title>BaseModule&#45;&gt;BaseFooterComponent </title>
<path fill="none" stroke="black" stroke-dasharray="5,2" d="M335.47,-137.8C377.33,-137.8 434.32,-137.8 434.32,-137.8 434.32,-137.8 434.32,-168.78 434.32,-168.78"/>
<polygon fill="black" stroke="black" points="430.82,-168.78 434.32,-178.78 437.82,-168.78 430.82,-168.78"/>
</g>
<!-- BaseHeaderComponent  -->
<g id="node6" class="node">
<title>BaseHeaderComponent </title>
<polygon fill="#fb8072" stroke="black" points="368.45,-214.8 215.55,-214.8 215.55,-178.8 368.45,-178.8 368.45,-214.8"/>
<text text-anchor="middle" x="292" y="-192.6" font-family="Times,serif" font-size="14.00">BaseHeaderComponent </text>
</g>
<!-- BaseModule&#45;&gt;BaseHeaderComponent  -->
<g id="edge5" class="edge">
<title>BaseModule&#45;&gt;BaseHeaderComponent </title>
<path fill="none" stroke="black" stroke-dasharray="5,2" d="M292,-149.91C292,-149.91 292,-168.79 292,-168.79"/>
<polygon fill="black" stroke="black" points="288.5,-168.79 292,-178.79 295.5,-168.79 288.5,-168.79"/>
</g>
<!-- BaseNavigationComponent  -->
<g id="node7" class="node">
<title>BaseNavigationComponent </title>
<polygon fill="#fb8072" stroke="black" points="198.25,-214.8 23.75,-214.8 23.75,-178.8 198.25,-178.8 198.25,-214.8"/>
<text text-anchor="middle" x="111" y="-192.6" font-family="Times,serif" font-size="14.00">BaseNavigationComponent </text>
</g>
<!-- BaseModule&#45;&gt;BaseNavigationComponent  -->
<g id="edge6" class="edge">
<title>BaseModule&#45;&gt;BaseNavigationComponent </title>
<path fill="none" stroke="black" stroke-dasharray="5,2" d="M248.63,-137.8C187.97,-137.8 85.12,-137.8 85.12,-137.8 85.12,-137.8 85.12,-168.78 85.12,-168.78"/>
<polygon fill="black" stroke="black" points="81.62,-168.78 85.12,-178.78 88.62,-168.78 81.62,-168.78"/>
</g>
</g>
</svg>
