<?xml version="1.0" encoding="UTF-8" standalone="no"?>
<!DOCTYPE svg PUBLIC "-//W3C//DTD SVG 1.1//EN"
 "http://www.w3.org/Graphics/SVG/1.1/DTD/svg11.dtd">
<!-- Generated by graphviz version 2.47.3 (20210619.1520)
 -->
<!-- Title: dependencies Pages: 1 -->
<svg width="266pt" height="174pt"
 viewBox="0.00 0.00 266.00 173.80" xmlns="http://www.w3.org/2000/svg" xmlns:xlink="http://www.w3.org/1999/xlink">
<g id="graph0" class="graph" transform="scale(1 1) rotate(0) translate(4 169.8)">
<title>dependencies</title>
<polygon fill="white" stroke="transparent" points="-4,4 -4,-169.8 262,-169.8 262,4 -4,4"/>
<text text-anchor="middle" x="129" y="-8.2" font-family="sans-serif" font-size="14.00">dependencies</text>
<g id="clust1" class="cluster">
<title>cluster_SharedModule</title>
<polygon fill="none" stroke="black" stroke-dasharray="1,5" points="8,-32.8 8,-157.8 250,-157.8 250,-32.8 8,-32.8"/>
</g>
<g id="clust4" class="cluster">
<title>cluster_SharedModule_exports</title>
<polygon fill="none" stroke="black" points="16,-97.8 16,-149.8 242,-149.8 242,-97.8 16,-97.8"/>
</g>
<!-- BaseModule  -->
<g id="node1" class="node">
<title>BaseModule </title>
<polygon fill="#fb8072" stroke="black" points="234.26,-141.8 143.74,-141.8 143.74,-105.8 234.26,-105.8 234.26,-141.8"/>
<text text-anchor="middle" x="189" y="-119.6" font-family="Times,serif" font-size="14.00">BaseModule </text>
</g>
<!-- ImportModule  -->
<g id="node2" class="node">
<title>ImportModule </title>
<polygon fill="#fb8072" stroke="black" points="125.65,-141.8 24.35,-141.8 24.35,-105.8 125.65,-105.8 125.65,-141.8"/>
<text text-anchor="middle" x="75" y="-119.6" font-family="Times,serif" font-size="14.00">ImportModule </text>
</g>
<!-- SharedModule -->
<g id="node3" class="node">
<title>SharedModule</title>
<polygon fill="#8dd3c7" stroke="black" points="181.42,-76.8 178.42,-80.8 157.42,-80.8 154.42,-76.8 82.58,-76.8 82.58,-40.8 181.42,-40.8 181.42,-76.8"/>
<text text-anchor="middle" x="132" y="-54.6" font-family="Times,serif" font-size="14.00">SharedModule</text>
</g>
<!-- SharedModule&#45;&gt;BaseModule  -->
<g id="edge1" class="edge">
<title>SharedModule&#45;&gt;BaseModule </title>
<path fill="none" stroke="black" stroke-dasharray="5,2" d="M162.54,-76.91C162.54,-76.91 162.54,-95.79 162.54,-95.79"/>
<polygon fill="black" stroke="black" points="159.04,-95.79 162.54,-105.79 166.04,-95.79 159.04,-95.79"/>
</g>
<!-- SharedModule&#45;&gt;ImportModule  -->
<g id="edge2" class="edge">
<title>SharedModule&#45;&gt;ImportModule </title>
<path fill="none" stroke="black" stroke-dasharray="5,2" d="M104.18,-76.91C104.18,-76.91 104.18,-95.79 104.18,-95.79"/>
<polygon fill="black" stroke="black" points="100.68,-95.79 104.18,-105.79 107.68,-95.79 100.68,-95.79"/>
</g>
</g>
</svg>
