<?xml version="1.0" encoding="UTF-8" standalone="no"?>
<!DOCTYPE svg PUBLIC "-//W3C//DTD SVG 1.1//EN"
 "http://www.w3.org/Graphics/SVG/1.1/DTD/svg11.dtd">
<!-- Generated by graphviz version 2.47.3 (20210619.1520)
 -->
<!-- Title: dependencies Pages: 1 -->
<svg width="1143pt" height="247pt"
 viewBox="0.00 0.00 1143.00 246.80" xmlns="http://www.w3.org/2000/svg" xmlns:xlink="http://www.w3.org/1999/xlink">
<g id="graph0" class="graph" transform="scale(1 1) rotate(0) translate(4 242.8)">
<title>dependencies</title>
<polygon fill="white" stroke="transparent" points="-4,4 -4,-242.8 1139,-242.8 1139,4 -4,4"/>
<text text-anchor="middle" x="567.5" y="-8.2" font-family="sans-serif" font-size="14.00">dependencies</text>
<g id="clust1" class="cluster">
<title>cluster_ViewsModule</title>
<polygon fill="none" stroke="black" stroke-dasharray="1,5" points="8,-32.8 8,-230.8 1127,-230.8 1127,-32.8 8,-32.8"/>
</g>
<g id="clust2" class="cluster">
<title>cluster_ViewsModule_declarations</title>
<polygon fill="none" stroke="black" points="263,-40.8 263,-92.8 1119,-92.8 1119,-40.8 263,-40.8"/>
</g>
<g id="clust9" class="cluster">
<title>cluster_ViewsModule_exports</title>
<polygon fill="none" stroke="black" points="189,-170.8 189,-222.8 878,-222.8 878,-170.8 189,-170.8"/>
</g>
<g id="clust8" class="cluster">
<title>cluster_ViewsModule_imports</title>
<polygon fill="none" stroke="black" points="16,-40.8 16,-92.8 255,-92.8 255,-40.8 16,-40.8"/>
</g>
<!-- ViewContentComponent -->
<g id="node1" class="node">
<title>ViewContentComponent</title>
<polygon fill="#ffffb3" stroke="black" points="1110.98,-84.8 955.02,-84.8 955.02,-48.8 1110.98,-48.8 1110.98,-84.8"/>
<text text-anchor="middle" x="1033" y="-62.6" font-family="Times,serif" font-size="14.00">ViewContentComponent</text>
</g>
<!-- ViewsModule -->
<g id="node6" class="node">
<title>ViewsModule</title>
<polygon fill="#8dd3c7" stroke="black" points="575.81,-149.8 572.81,-153.8 551.81,-153.8 548.81,-149.8 480.19,-149.8 480.19,-113.8 575.81,-113.8 575.81,-149.8"/>
<text text-anchor="middle" x="528" y="-127.6" font-family="Times,serif" font-size="14.00">ViewsModule</text>
</g>
<!-- ViewContentComponent&#45;&gt;ViewsModule -->
<g id="edge1" class="edge">
<title>ViewContentComponent&#45;&gt;ViewsModule</title>
<path fill="none" stroke="black" d="M1033,-84.93C1033,-105.37 1033,-135.8 1033,-135.8 1033,-135.8 585.96,-135.8 585.96,-135.8"/>
<polygon fill="black" stroke="black" points="585.96,-132.3 575.96,-135.8 585.96,-139.3 585.96,-132.3"/>
</g>
<!-- ViewEditionComponent -->
<g id="node2" class="node">
<title>ViewEditionComponent</title>
<polygon fill="#ffffb3" stroke="black" points="937.38,-84.8 784.62,-84.8 784.62,-48.8 937.38,-48.8 937.38,-84.8"/>
<text text-anchor="middle" x="861" y="-62.6" font-family="Times,serif" font-size="14.00">ViewEditionComponent</text>
</g>
<!-- ViewEditionComponent&#45;&gt;ViewsModule -->
<g id="edge2" class="edge">
<title>ViewEditionComponent&#45;&gt;ViewsModule</title>
<path fill="none" stroke="black" d="M827.15,-85.07C827.15,-103.36 827.15,-128.8 827.15,-128.8 827.15,-128.8 585.73,-128.8 585.73,-128.8"/>
<polygon fill="black" stroke="black" points="585.73,-125.3 575.73,-128.8 585.73,-132.3 585.73,-125.3"/>
</g>
<!-- ViewHomeComponent -->
<g id="node3" class="node">
<title>ViewHomeComponent</title>
<polygon fill="#ffffb3" stroke="black" points="766.86,-84.8 621.14,-84.8 621.14,-48.8 766.86,-48.8 766.86,-84.8"/>
<text text-anchor="middle" x="694" y="-62.6" font-family="Times,serif" font-size="14.00">ViewHomeComponent</text>
</g>
<!-- ViewHomeComponent&#45;&gt;ViewsModule -->
<g id="edge3" class="edge">
<title>ViewHomeComponent&#45;&gt;ViewsModule</title>
<path fill="none" stroke="black" d="M656.63,-84.81C656.63,-100.85 656.63,-121.8 656.63,-121.8 656.63,-121.8 585.9,-121.8 585.9,-121.8"/>
<polygon fill="black" stroke="black" points="585.9,-118.3 575.9,-121.8 585.9,-125.3 585.9,-118.3"/>
</g>
<!-- ViewSearchComponent -->
<g id="node4" class="node">
<title>ViewSearchComponent</title>
<polygon fill="#ffffb3" stroke="black" points="602.74,-84.8 453.26,-84.8 453.26,-48.8 602.74,-48.8 602.74,-84.8"/>
<text text-anchor="middle" x="528" y="-62.6" font-family="Times,serif" font-size="14.00">ViewSearchComponent</text>
</g>
<!-- ViewSearchComponent&#45;&gt;ViewsModule -->
<g id="edge4" class="edge">
<title>ViewSearchComponent&#45;&gt;ViewsModule</title>
<path fill="none" stroke="black" d="M528,-84.91C528,-84.91 528,-103.79 528,-103.79"/>
<polygon fill="black" stroke="black" points="524.5,-103.79 528,-113.79 531.5,-103.79 524.5,-103.79"/>
</g>
<!-- ViewTemplateComponent -->
<g id="node5" class="node">
<title>ViewTemplateComponent</title>
<polygon fill="#ffffb3" stroke="black" points="435.02,-84.8 270.98,-84.8 270.98,-48.8 435.02,-48.8 435.02,-84.8"/>
<text text-anchor="middle" x="353" y="-62.6" font-family="Times,serif" font-size="14.00">ViewTemplateComponent</text>
</g>
<!-- ViewTemplateComponent&#45;&gt;ViewsModule -->
<g id="edge5" class="edge">
<title>ViewTemplateComponent&#45;&gt;ViewsModule</title>
<path fill="none" stroke="black" d="M401.79,-84.81C401.79,-100.85 401.79,-121.8 401.79,-121.8 401.79,-121.8 470.29,-121.8 470.29,-121.8"/>
<polygon fill="black" stroke="black" points="470.29,-125.3 480.29,-121.8 470.29,-118.3 470.29,-125.3"/>
</g>
<!-- ViewContentComponent  -->
<g id="node9" class="node">
<title>ViewContentComponent </title>
<polygon fill="#fb8072" stroke="black" points="869.98,-214.8 710.02,-214.8 710.02,-178.8 869.98,-178.8 869.98,-214.8"/>
<text text-anchor="middle" x="790" y="-192.6" font-family="Times,serif" font-size="14.00">ViewContentComponent </text>
</g>
<!-- ViewsModule&#45;&gt;ViewContentComponent  -->
<g id="edge8" class="edge">
<title>ViewsModule&#45;&gt;ViewContentComponent </title>
<path fill="none" stroke="black" stroke-dasharray="5,2" d="M575.79,-142.8C637.92,-142.8 738.59,-142.8 738.59,-142.8 738.59,-142.8 738.59,-168.52 738.59,-168.52"/>
<polygon fill="black" stroke="black" points="735.09,-168.52 738.59,-178.52 742.09,-168.52 735.09,-168.52"/>
</g>
<!-- ViewEditionComponent  -->
<g id="node10" class="node">
<title>ViewEditionComponent </title>
<polygon fill="#fb8072" stroke="black" points="692.38,-214.8 535.62,-214.8 535.62,-178.8 692.38,-178.8 692.38,-214.8"/>
<text text-anchor="middle" x="614" y="-192.6" font-family="Times,serif" font-size="14.00">ViewEditionComponent </text>
</g>
<!-- ViewsModule&#45;&gt;ViewEditionComponent  -->
<g id="edge9" class="edge">
<title>ViewsModule&#45;&gt;ViewEditionComponent </title>
<path fill="none" stroke="black" stroke-dasharray="5,2" d="M555.73,-149.91C555.73,-149.91 555.73,-168.79 555.73,-168.79"/>
<polygon fill="black" stroke="black" points="552.23,-168.79 555.73,-178.79 559.23,-168.79 552.23,-168.79"/>
</g>
<!-- ViewHomeComponent  -->
<g id="node11" class="node">
<title>ViewHomeComponent </title>
<polygon fill="#fb8072" stroke="black" points="517.86,-214.8 368.14,-214.8 368.14,-178.8 517.86,-178.8 517.86,-214.8"/>
<text text-anchor="middle" x="443" y="-192.6" font-family="Times,serif" font-size="14.00">ViewHomeComponent </text>
</g>
<!-- ViewsModule&#45;&gt;ViewHomeComponent  -->
<g id="edge10" class="edge">
<title>ViewsModule&#45;&gt;ViewHomeComponent </title>
<path fill="none" stroke="black" stroke-dasharray="5,2" d="M499.01,-149.91C499.01,-149.91 499.01,-168.79 499.01,-168.79"/>
<polygon fill="black" stroke="black" points="495.51,-168.79 499.01,-178.79 502.51,-168.79 495.51,-168.79"/>
</g>
<!-- ViewSearchComponent  -->
<g id="node12" class="node">
<title>ViewSearchComponent </title>
<polygon fill="#fb8072" stroke="black" points="350.74,-214.8 197.26,-214.8 197.26,-178.8 350.74,-178.8 350.74,-214.8"/>
<text text-anchor="middle" x="274" y="-192.6" font-family="Times,serif" font-size="14.00">ViewSearchComponent </text>
</g>
<!-- ViewsModule&#45;&gt;ViewSearchComponent  -->
<g id="edge11" class="edge">
<title>ViewsModule&#45;&gt;ViewSearchComponent </title>
<path fill="none" stroke="black" stroke-dasharray="5,2" d="M480.31,-142.8C416.34,-142.8 310.68,-142.8 310.68,-142.8 310.68,-142.8 310.68,-168.52 310.68,-168.52"/>
<polygon fill="black" stroke="black" points="307.18,-168.52 310.68,-178.52 314.18,-168.52 307.18,-168.52"/>
</g>
<!-- FeaturesModule -->
<g id="node7" class="node">
<title>FeaturesModule</title>
<polygon fill="#8dd3c7" stroke="black" points="247.47,-84.8 244.47,-88.8 223.47,-88.8 220.47,-84.8 140.53,-84.8 140.53,-48.8 247.47,-48.8 247.47,-84.8"/>
<text text-anchor="middle" x="194" y="-62.6" font-family="Times,serif" font-size="14.00">FeaturesModule</text>
</g>
<!-- FeaturesModule&#45;&gt;ViewsModule -->
<g id="edge6" class="edge">
<title>FeaturesModule&#45;&gt;ViewsModule</title>
<path fill="none" stroke="black" d="M222.43,-85.07C222.43,-103.36 222.43,-128.8 222.43,-128.8 222.43,-128.8 470.26,-128.8 470.26,-128.8"/>
<polygon fill="black" stroke="black" points="470.26,-132.3 480.26,-128.8 470.26,-125.3 470.26,-132.3"/>
</g>
<!-- SharedModule -->
<g id="node8" class="node">
<title>SharedModule</title>
<polygon fill="#8dd3c7" stroke="black" points="122.42,-84.8 119.42,-88.8 98.42,-88.8 95.42,-84.8 23.58,-84.8 23.58,-48.8 122.42,-48.8 122.42,-84.8"/>
<text text-anchor="middle" x="73" y="-62.6" font-family="Times,serif" font-size="14.00">SharedModule</text>
</g>
<!-- SharedModule&#45;&gt;ViewsModule -->
<g id="edge7" class="edge">
<title>SharedModule&#45;&gt;ViewsModule</title>
<path fill="none" stroke="black" d="M73,-84.93C73,-105.37 73,-135.8 73,-135.8 73,-135.8 470.17,-135.8 470.17,-135.8"/>
<polygon fill="black" stroke="black" points="470.17,-139.3 480.17,-135.8 470.17,-132.3 470.17,-139.3"/>
</g>
</g>
</svg>
