<?xml version="1.0" encoding="UTF-8" standalone="no"?>
<!DOCTYPE svg PUBLIC "-//W3C//DTD SVG 1.1//EN"
 "http://www.w3.org/Graphics/SVG/1.1/DTD/svg11.dtd">
<!-- Generated by graphviz version 2.47.3 (20210619.1520)
 -->
<!-- Title: dependencies Pages: 1 -->
<svg width="346pt" height="247pt"
 viewBox="0.00 0.00 346.00 246.80" xmlns="http://www.w3.org/2000/svg" xmlns:xlink="http://www.w3.org/1999/xlink">
<g id="graph0" class="graph" transform="scale(1 1) rotate(0) translate(4 242.8)">
<title>dependencies</title>
<polygon fill="white" stroke="transparent" points="-4,4 -4,-242.8 342,-242.8 342,4 -4,4"/>
<text text-anchor="middle" x="169" y="-8.2" font-family="sans-serif" font-size="14.00">dependencies</text>
<g id="clust1" class="cluster">
<title>cluster_FeatureContentModule</title>
<polygon fill="none" stroke="black" stroke-dasharray="1,5" points="8,-32.8 8,-230.8 330,-230.8 330,-32.8 8,-32.8"/>
</g>
<g id="clust4" class="cluster">
<title>cluster_FeatureContentModule_imports</title>
<polygon fill="none" stroke="black" points="208,-40.8 208,-92.8 322,-92.8 322,-40.8 208,-40.8"/>
</g>
<g id="clust2" class="cluster">
<title>cluster_FeatureContentModule_declarations</title>
<polygon fill="none" stroke="black" points="16,-40.8 16,-92.8 200,-92.8 200,-40.8 16,-40.8"/>
</g>
<g id="clust5" class="cluster">
<title>cluster_FeatureContentModule_exports</title>
<polygon fill="none" stroke="black" points="75,-170.8 75,-222.8 263,-222.8 263,-170.8 75,-170.8"/>
</g>
<!-- FeatureContentComponent -->
<g id="node1" class="node">
<title>FeatureContentComponent</title>
<polygon fill="#ffffb3" stroke="black" points="191.64,-84.8 24.36,-84.8 24.36,-48.8 191.64,-48.8 191.64,-84.8"/>
<text text-anchor="middle" x="108" y="-62.6" font-family="Times,serif" font-size="14.00">FeatureContentComponent</text>
</g>
<!-- FeatureContentModule -->
<g id="node2" class="node">
<title>FeatureContentModule</title>
<polygon fill="#8dd3c7" stroke="black" points="241.86,-149.8 238.86,-153.8 217.86,-153.8 214.86,-149.8 96.14,-149.8 96.14,-113.8 241.86,-113.8 241.86,-149.8"/>
<text text-anchor="middle" x="169" y="-127.6" font-family="Times,serif" font-size="14.00">FeatureContentModule</text>
</g>
<!-- FeatureContentComponent&#45;&gt;FeatureContentModule -->
<g id="edge1" class="edge">
<title>FeatureContentComponent&#45;&gt;FeatureContentModule</title>
<path fill="none" stroke="black" d="M143.95,-84.91C143.95,-84.91 143.95,-103.79 143.95,-103.79"/>
<polygon fill="black" stroke="black" points="140.45,-103.79 143.95,-113.79 147.45,-103.79 140.45,-103.79"/>
</g>
<!-- FeatureContentComponent  -->
<g id="node4" class="node">
<title>FeatureContentComponent </title>
<polygon fill="#fb8072" stroke="black" points="254.64,-214.8 83.36,-214.8 83.36,-178.8 254.64,-178.8 254.64,-214.8"/>
<text text-anchor="middle" x="169" y="-192.6" font-family="Times,serif" font-size="14.00">FeatureContentComponent </text>
</g>
<!-- FeatureContentModule&#45;&gt;FeatureContentComponent  -->
<g id="edge3" class="edge">
<title>FeatureContentModule&#45;&gt;FeatureContentComponent </title>
<path fill="none" stroke="black" stroke-dasharray="5,2" d="M169,-149.91C169,-149.91 169,-168.79 169,-168.79"/>
<polygon fill="black" stroke="black" points="165.5,-168.79 169,-178.79 172.5,-168.79 165.5,-168.79"/>
</g>
<!-- SharedModule -->
<g id="node3" class="node">
<title>SharedModule</title>
<polygon fill="#8dd3c7" stroke="black" points="314.42,-84.8 311.42,-88.8 290.42,-88.8 287.42,-84.8 215.58,-84.8 215.58,-48.8 314.42,-48.8 314.42,-84.8"/>
<text text-anchor="middle" x="265" y="-62.6" font-family="Times,serif" font-size="14.00">SharedModule</text>
</g>
<!-- SharedModule&#45;&gt;FeatureContentModule -->
<g id="edge2" class="edge">
<title>SharedModule&#45;&gt;FeatureContentModule</title>
<path fill="none" stroke="black" d="M228.86,-84.91C228.86,-84.91 228.86,-103.79 228.86,-103.79"/>
<polygon fill="black" stroke="black" points="225.36,-103.79 228.86,-113.79 232.36,-103.79 225.36,-103.79"/>
</g>
</g>
</svg>
