<?xml version="1.0" encoding="UTF-8" standalone="no"?>
<!DOCTYPE svg PUBLIC "-//W3C//DTD SVG 1.1//EN"
 "http://www.w3.org/Graphics/SVG/1.1/DTD/svg11.dtd">
<!-- Generated by graphviz version 2.47.3 (20210619.1520)
 -->
<!-- Title: dependencies Pages: 1 -->
<svg width="538pt" height="247pt"
 viewBox="0.00 0.00 538.00 246.80" xmlns="http://www.w3.org/2000/svg" xmlns:xlink="http://www.w3.org/1999/xlink">
<g id="graph0" class="graph" transform="scale(1 1) rotate(0) translate(4 242.8)">
<title>dependencies</title>
<polygon fill="white" stroke="transparent" points="-4,4 -4,-242.8 534,-242.8 534,4 -4,4"/>
<text text-anchor="middle" x="265" y="-8.2" font-family="sans-serif" font-size="14.00">dependencies</text>
<g id="clust1" class="cluster">
<title>cluster_AppModule</title>
<polygon fill="none" stroke="black" stroke-dasharray="1,5" points="8,-32.8 8,-230.8 522,-230.8 522,-32.8 8,-32.8"/>
</g>
<g id="clust2" class="cluster">
<title>cluster_AppModule_declarations</title>
<polygon fill="none" stroke="black" points="392,-40.8 392,-92.8 514,-92.8 514,-40.8 392,-40.8"/>
</g>
<g id="clust4" class="cluster">
<title>cluster_AppModule_imports</title>
<polygon fill="none" stroke="black" points="16,-40.8 16,-92.8 384,-92.8 384,-40.8 16,-40.8"/>
</g>
<g id="clust6" class="cluster">
<title>cluster_AppModule_bootstrap</title>
<polygon fill="none" stroke="black" points="186,-170.8 186,-222.8 310,-222.8 310,-170.8 186,-170.8"/>
</g>
<!-- AppComponent -->
<g id="node1" class="node">
<title>AppComponent</title>
<polygon fill="#ffffb3" stroke="black" points="505.94,-84.8 400.06,-84.8 400.06,-48.8 505.94,-48.8 505.94,-84.8"/>
<text text-anchor="middle" x="453" y="-62.6" font-family="Times,serif" font-size="14.00">AppComponent</text>
</g>
<!-- AppModule -->
<g id="node2" class="node">
<title>AppModule</title>
<polygon fill="#8dd3c7" stroke="black" points="289.66,-149.8 286.66,-153.8 265.66,-153.8 262.66,-149.8 206.34,-149.8 206.34,-113.8 289.66,-113.8 289.66,-149.8"/>
<text text-anchor="middle" x="248" y="-127.6" font-family="Times,serif" font-size="14.00">AppModule</text>
</g>
<!-- AppComponent&#45;&gt;AppModule -->
<g id="edge1" class="edge">
<title>AppComponent&#45;&gt;AppModule</title>
<path fill="none" stroke="black" d="M453,-84.91C453,-104.14 453,-131.8 453,-131.8 453,-131.8 299.98,-131.8 299.98,-131.8"/>
<polygon fill="black" stroke="black" points="299.98,-128.3 289.98,-131.8 299.98,-135.3 299.98,-128.3"/>
</g>
<!-- AppComponent  -->
<g id="node6" class="node">
<title>AppComponent </title>
<polygon fill="#80b1d3" stroke="black" points="302.44,-214.8 193.56,-214.8 193.56,-178.8 302.44,-178.8 302.44,-214.8"/>
<text text-anchor="middle" x="248" y="-192.6" font-family="Times,serif" font-size="14.00">AppComponent </text>
</g>
<!-- AppModule&#45;&gt;AppComponent  -->
<g id="edge5" class="edge">
<title>AppModule&#45;&gt;AppComponent </title>
<path fill="none" stroke="black" stroke-dasharray="1,5" d="M248,-149.91C248,-149.91 248,-168.79 248,-168.79"/>
<polygon fill="black" stroke="black" points="244.5,-168.79 248,-178.79 251.5,-168.79 244.5,-168.79"/>
</g>
<!-- AppRoutingModule -->
<g id="node3" class="node">
<title>AppRoutingModule</title>
<polygon fill="#8dd3c7" stroke="black" points="376.27,-84.8 373.27,-88.8 352.27,-88.8 349.27,-84.8 247.73,-84.8 247.73,-48.8 376.27,-48.8 376.27,-84.8"/>
<text text-anchor="middle" x="312" y="-62.6" font-family="Times,serif" font-size="14.00">AppRoutingModule</text>
</g>
<!-- AppRoutingModule&#45;&gt;AppModule -->
<g id="edge2" class="edge">
<title>AppRoutingModule&#45;&gt;AppModule</title>
<path fill="none" stroke="black" d="M268.72,-84.91C268.72,-84.91 268.72,-103.79 268.72,-103.79"/>
<polygon fill="black" stroke="black" points="265.22,-103.79 268.72,-113.79 272.22,-103.79 265.22,-103.79"/>
</g>
<!-- LogicModule -->
<g id="node4" class="node">
<title>LogicModule</title>
<polygon fill="#8dd3c7" stroke="black" points="230.21,-84.8 227.21,-88.8 206.21,-88.8 203.21,-84.8 137.79,-84.8 137.79,-48.8 230.21,-48.8 230.21,-84.8"/>
<text text-anchor="middle" x="184" y="-62.6" font-family="Times,serif" font-size="14.00">LogicModule</text>
</g>
<!-- LogicModule&#45;&gt;AppModule -->
<g id="edge3" class="edge">
<title>LogicModule&#45;&gt;AppModule</title>
<path fill="none" stroke="black" d="M218.14,-84.91C218.14,-84.91 218.14,-103.79 218.14,-103.79"/>
<polygon fill="black" stroke="black" points="214.64,-103.79 218.14,-113.79 221.64,-103.79 214.64,-103.79"/>
</g>
<!-- ViewsModule -->
<g id="node5" class="node">
<title>ViewsModule</title>
<polygon fill="#8dd3c7" stroke="black" points="119.81,-84.8 116.81,-88.8 95.81,-88.8 92.81,-84.8 24.19,-84.8 24.19,-48.8 119.81,-48.8 119.81,-84.8"/>
<text text-anchor="middle" x="72" y="-62.6" font-family="Times,serif" font-size="14.00">ViewsModule</text>
</g>
<!-- ViewsModule&#45;&gt;AppModule -->
<g id="edge4" class="edge">
<title>ViewsModule&#45;&gt;AppModule</title>
<path fill="none" stroke="black" d="M72,-84.91C72,-104.14 72,-131.8 72,-131.8 72,-131.8 196.29,-131.8 196.29,-131.8"/>
<polygon fill="black" stroke="black" points="196.29,-135.3 206.29,-131.8 196.29,-128.3 196.29,-135.3"/>
</g>
</g>
</svg>
