<?xml version="1.0" encoding="UTF-8" standalone="no"?>
<!DOCTYPE svg PUBLIC "-//W3C//DTD SVG 1.1//EN"
 "http://www.w3.org/Graphics/SVG/1.1/DTD/svg11.dtd">
<!-- Generated by graphviz version 2.47.3 (20210619.1520)
 -->
<!-- Title: dependencies Pages: 1 -->
<svg width="522pt" height="174pt"
 viewBox="0.00 0.00 522.00 173.80" xmlns="http://www.w3.org/2000/svg" xmlns:xlink="http://www.w3.org/1999/xlink">
<g id="graph0" class="graph" transform="scale(1 1) rotate(0) translate(4 169.8)">
<title>dependencies</title>
<polygon fill="white" stroke="transparent" points="-4,4 -4,-169.8 518,-169.8 518,4 -4,4"/>
<text text-anchor="middle" x="257" y="-8.2" font-family="sans-serif" font-size="14.00">dependencies</text>
<g id="clust1" class="cluster">
<title>cluster_LogicModule</title>
<polygon fill="none" stroke="black" stroke-dasharray="1,5" points="8,-32.8 8,-157.8 506,-157.8 506,-32.8 8,-32.8"/>
</g>
<g id="clust6" class="cluster">
<title>cluster_LogicModule_providers</title>
<polygon fill="none" stroke="black" points="16,-40.8 16,-92.8 498,-92.8 498,-40.8 16,-40.8"/>
</g>
<!-- AuthService -->
<g id="node1" class="node">
<title>AuthService</title>
<ellipse fill="#fdb462" stroke="black" cx="431" cy="-66.8" rx="59.11" ry="18"/>
<text text-anchor="middle" x="431" y="-62.6" font-family="Times,serif" font-size="14.00">AuthService</text>
</g>
<!-- LogicModule -->
<g id="node4" class="node">
<title>LogicModule</title>
<polygon fill="#8dd3c7" stroke="black" points="318.21,-149.8 315.21,-153.8 294.21,-153.8 291.21,-149.8 225.79,-149.8 225.79,-113.8 318.21,-113.8 318.21,-149.8"/>
<text text-anchor="middle" x="272" y="-127.6" font-family="Times,serif" font-size="14.00">LogicModule</text>
</g>
<!-- AuthService&#45;&gt;LogicModule -->
<g id="edge1" class="edge">
<title>AuthService&#45;&gt;LogicModule</title>
<path fill="none" stroke="black" d="M431,-84.91C431,-104.14 431,-131.8 431,-131.8 431,-131.8 328.42,-131.8 328.42,-131.8"/>
<polygon fill="black" stroke="black" points="328.42,-128.3 318.42,-131.8 328.42,-135.3 328.42,-128.3"/>
</g>
<!-- DispatcherService -->
<g id="node2" class="node">
<title>DispatcherService</title>
<ellipse fill="#fdb462" stroke="black" cx="272" cy="-66.8" rx="81.64" ry="18"/>
<text text-anchor="middle" x="272" y="-62.6" font-family="Times,serif" font-size="14.00">DispatcherService</text>
</g>
<!-- DispatcherService&#45;&gt;LogicModule -->
<g id="edge2" class="edge">
<title>DispatcherService&#45;&gt;LogicModule</title>
<path fill="none" stroke="black" d="M272,-84.91C272,-84.91 272,-103.79 272,-103.79"/>
<polygon fill="black" stroke="black" points="268.5,-103.79 272,-113.79 275.5,-103.79 268.5,-103.79"/>
</g>
<!-- MessageService -->
<g id="node3" class="node">
<title>MessageService</title>
<ellipse fill="#fdb462" stroke="black" cx="98" cy="-66.8" rx="73.55" ry="18"/>
<text text-anchor="middle" x="98" y="-62.6" font-family="Times,serif" font-size="14.00">MessageService</text>
</g>
<!-- MessageService&#45;&gt;LogicModule -->
<g id="edge3" class="edge">
<title>MessageService&#45;&gt;LogicModule</title>
<path fill="none" stroke="black" d="M98,-84.91C98,-104.14 98,-131.8 98,-131.8 98,-131.8 215.83,-131.8 215.83,-131.8"/>
<polygon fill="black" stroke="black" points="215.83,-135.3 225.83,-131.8 215.83,-128.3 215.83,-135.3"/>
</g>
</g>
</svg>
