<?xml version="1.0" encoding="UTF-8" standalone="no"?>
<!DOCTYPE svg PUBLIC "-//W3C//DTD SVG 1.1//EN"
 "http://www.w3.org/Graphics/SVG/1.1/DTD/svg11.dtd">
<!-- Generated by graphviz version 2.47.3 (20210619.1520)
 -->
<!-- Title: dependencies Pages: 1 -->
<svg width="672pt" height="174pt"
 viewBox="0.00 0.00 672.00 173.80" xmlns="http://www.w3.org/2000/svg" xmlns:xlink="http://www.w3.org/1999/xlink">
<g id="graph0" class="graph" transform="scale(1 1) rotate(0) translate(4 169.8)">
<title>dependencies</title>
<polygon fill="white" stroke="transparent" points="-4,4 -4,-169.8 668,-169.8 668,4 -4,4"/>
<text text-anchor="middle" x="332" y="-8.2" font-family="sans-serif" font-size="14.00">dependencies</text>
<g id="clust1" class="cluster">
<title>cluster_FeaturesModule</title>
<polygon fill="none" stroke="black" stroke-dasharray="1,5" points="8,-32.8 8,-157.8 656,-157.8 656,-32.8 8,-32.8"/>
</g>
<g id="clust4" class="cluster">
<title>cluster_FeaturesModule_exports</title>
<polygon fill="none" stroke="black" points="16,-97.8 16,-149.8 648,-149.8 648,-97.8 16,-97.8"/>
</g>
<!-- FeatureContentModule  -->
<g id="node1" class="node">
<title>FeatureContentModule </title>
<polygon fill="#fb8072" stroke="black" points="639.86,-141.8 490.14,-141.8 490.14,-105.8 639.86,-105.8 639.86,-141.8"/>
<text text-anchor="middle" x="565" y="-119.6" font-family="Times,serif" font-size="14.00">FeatureContentModule </text>
</g>
<!-- FeatureEditionModule  -->
<g id="node2" class="node">
<title>FeatureEditionModule </title>
<polygon fill="#fb8072" stroke="black" points="472.25,-141.8 325.75,-141.8 325.75,-105.8 472.25,-105.8 472.25,-141.8"/>
<text text-anchor="middle" x="399" y="-119.6" font-family="Times,serif" font-size="14.00">FeatureEditionModule </text>
</g>
<!-- FeatureListModule  -->
<g id="node3" class="node">
<title>FeatureListModule </title>
<polygon fill="#fb8072" stroke="black" points="307.31,-141.8 180.69,-141.8 180.69,-105.8 307.31,-105.8 307.31,-141.8"/>
<text text-anchor="middle" x="244" y="-119.6" font-family="Times,serif" font-size="14.00">FeatureListModule </text>
</g>
<!-- FeatureLoginModule  -->
<g id="node4" class="node">
<title>FeatureLoginModule </title>
<polygon fill="#fb8072" stroke="black" points="162.47,-141.8 23.53,-141.8 23.53,-105.8 162.47,-105.8 162.47,-141.8"/>
<text text-anchor="middle" x="93" y="-119.6" font-family="Times,serif" font-size="14.00">FeatureLoginModule </text>
</g>
<!-- FeaturesModule -->
<g id="node5" class="node">
<title>FeaturesModule</title>
<polygon fill="#8dd3c7" stroke="black" points="374.47,-76.8 371.47,-80.8 350.47,-80.8 347.47,-76.8 267.53,-76.8 267.53,-40.8 374.47,-40.8 374.47,-76.8"/>
<text text-anchor="middle" x="321" y="-54.6" font-family="Times,serif" font-size="14.00">FeaturesModule</text>
</g>
<!-- FeaturesModule&#45;&gt;FeatureContentModule  -->
<g id="edge1" class="edge">
<title>FeaturesModule&#45;&gt;FeatureContentModule </title>
<path fill="none" stroke="black" stroke-dasharray="5,2" d="M374.55,-58.8C446.37,-58.8 565,-58.8 565,-58.8 565,-58.8 565,-95.69 565,-95.69"/>
<polygon fill="black" stroke="black" points="561.5,-95.69 565,-105.69 568.5,-95.69 561.5,-95.69"/>
</g>
<!-- FeaturesModule&#45;&gt;FeatureEditionModule  -->
<g id="edge2" class="edge">
<title>FeaturesModule&#45;&gt;FeatureEditionModule </title>
<path fill="none" stroke="black" stroke-dasharray="5,2" d="M350.18,-76.91C350.18,-76.91 350.18,-95.79 350.18,-95.79"/>
<polygon fill="black" stroke="black" points="346.68,-95.79 350.18,-105.79 353.68,-95.79 346.68,-95.79"/>
</g>
<!-- FeaturesModule&#45;&gt;FeatureListModule  -->
<g id="edge3" class="edge">
<title>FeaturesModule&#45;&gt;FeatureListModule </title>
<path fill="none" stroke="black" stroke-dasharray="5,2" d="M287.46,-76.91C287.46,-76.91 287.46,-95.79 287.46,-95.79"/>
<polygon fill="black" stroke="black" points="283.96,-95.79 287.46,-105.79 290.96,-95.79 283.96,-95.79"/>
</g>
<!-- FeaturesModule&#45;&gt;FeatureLoginModule  -->
<g id="edge4" class="edge">
<title>FeaturesModule&#45;&gt;FeatureLoginModule </title>
<path fill="none" stroke="black" stroke-dasharray="5,2" d="M267.26,-58.8C199.85,-58.8 93,-58.8 93,-58.8 93,-58.8 93,-95.69 93,-95.69"/>
<polygon fill="black" stroke="black" points="89.5,-95.69 93,-105.69 96.5,-95.69 89.5,-95.69"/>
</g>
</g>
</svg>
