<?xml version="1.0" encoding="UTF-8" standalone="no"?>
<!DOCTYPE svg PUBLIC "-//W3C//DTD SVG 1.1//EN"
 "http://www.w3.org/Graphics/SVG/1.1/DTD/svg11.dtd">
<!-- Generated by graphviz version 2.47.3 (20210619.1520)
 -->
<!-- Title: dependencies Pages: 1 -->
<svg width="714pt" height="247pt"
 viewBox="0.00 0.00 714.00 246.80" xmlns="http://www.w3.org/2000/svg" xmlns:xlink="http://www.w3.org/1999/xlink">
<g id="graph0" class="graph" transform="scale(1 1) rotate(0) translate(4 242.8)">
<title>dependencies</title>
<polygon fill="white" stroke="transparent" points="-4,4 -4,-242.8 710,-242.8 710,4 -4,4"/>
<text text-anchor="middle" x="353" y="-8.2" font-family="sans-serif" font-size="14.00">dependencies</text>
<g id="clust1" class="cluster">
<title>cluster_FeatureListModule</title>
<polygon fill="none" stroke="black" stroke-dasharray="1,5" points="8,-32.8 8,-230.8 698,-230.8 698,-32.8 8,-32.8"/>
</g>
<g id="clust7" class="cluster">
<title>cluster_FeatureListModule_exports</title>
<polygon fill="none" stroke="black" points="172,-170.8 172,-222.8 541,-222.8 541,-170.8 172,-170.8"/>
</g>
<g id="clust6" class="cluster">
<title>cluster_FeatureListModule_imports</title>
<polygon fill="none" stroke="black" points="576,-40.8 576,-92.8 690,-92.8 690,-40.8 576,-40.8"/>
</g>
<g id="clust2" class="cluster">
<title>cluster_FeatureListModule_declarations</title>
<polygon fill="none" stroke="black" points="16,-40.8 16,-92.8 568,-92.8 568,-40.8 16,-40.8"/>
</g>
<!-- FeatureListComponent -->
<g id="node1" class="node">
<title>FeatureListComponent</title>
<polygon fill="#ffffb3" stroke="black" points="559.59,-84.8 414.41,-84.8 414.41,-48.8 559.59,-48.8 559.59,-84.8"/>
<text text-anchor="middle" x="487" y="-62.6" font-family="Times,serif" font-size="14.00">FeatureListComponent</text>
</g>
<!-- FeatureListModule -->
<g id="node4" class="node">
<title>FeatureListModule</title>
<polygon fill="#8dd3c7" stroke="black" points="427.81,-149.8 424.81,-153.8 403.81,-153.8 400.81,-149.8 304.19,-149.8 304.19,-113.8 427.81,-113.8 427.81,-149.8"/>
<text text-anchor="middle" x="366" y="-127.6" font-family="Times,serif" font-size="14.00">FeatureListModule</text>
</g>
<!-- FeatureListComponent&#45;&gt;FeatureListModule -->
<g id="edge1" class="edge">
<title>FeatureListComponent&#45;&gt;FeatureListModule</title>
<path fill="none" stroke="black" d="M421.05,-84.91C421.05,-84.91 421.05,-103.79 421.05,-103.79"/>
<polygon fill="black" stroke="black" points="417.55,-103.79 421.05,-113.79 424.55,-103.79 417.55,-103.79"/>
</g>
<!-- FeatureListItemComponent -->
<g id="node2" class="node">
<title>FeatureListItemComponent</title>
<polygon fill="#ffffb3" stroke="black" points="396.24,-84.8 225.76,-84.8 225.76,-48.8 396.24,-48.8 396.24,-84.8"/>
<text text-anchor="middle" x="311" y="-62.6" font-family="Times,serif" font-size="14.00">FeatureListItemComponent</text>
</g>
<!-- FeatureListItemComponent&#45;&gt;FeatureListModule -->
<g id="edge2" class="edge">
<title>FeatureListItemComponent&#45;&gt;FeatureListModule</title>
<path fill="none" stroke="black" d="M350.36,-84.91C350.36,-84.91 350.36,-103.79 350.36,-103.79"/>
<polygon fill="black" stroke="black" points="346.86,-103.79 350.36,-113.79 353.86,-103.79 346.86,-103.79"/>
</g>
<!-- FeatureListSearchComponent -->
<g id="node3" class="node">
<title>FeatureListSearchComponent</title>
<polygon fill="#ffffb3" stroke="black" points="207.68,-84.8 24.32,-84.8 24.32,-48.8 207.68,-48.8 207.68,-84.8"/>
<text text-anchor="middle" x="116" y="-62.6" font-family="Times,serif" font-size="14.00">FeatureListSearchComponent</text>
</g>
<!-- FeatureListSearchComponent&#45;&gt;FeatureListModule -->
<g id="edge3" class="edge">
<title>FeatureListSearchComponent&#45;&gt;FeatureListModule</title>
<path fill="none" stroke="black" d="M193.62,-84.91C193.62,-104.14 193.62,-131.8 193.62,-131.8 193.62,-131.8 294.26,-131.8 294.26,-131.8"/>
<polygon fill="black" stroke="black" points="294.26,-135.3 304.26,-131.8 294.26,-128.3 294.26,-135.3"/>
</g>
<!-- FeatureListComponent  -->
<g id="node6" class="node">
<title>FeatureListComponent </title>
<polygon fill="#fb8072" stroke="black" points="533.09,-214.8 384.91,-214.8 384.91,-178.8 533.09,-178.8 533.09,-214.8"/>
<text text-anchor="middle" x="459" y="-192.6" font-family="Times,serif" font-size="14.00">FeatureListComponent </text>
</g>
<!-- FeatureListModule&#45;&gt;FeatureListComponent  -->
<g id="edge5" class="edge">
<title>FeatureListModule&#45;&gt;FeatureListComponent </title>
<path fill="none" stroke="black" stroke-dasharray="5,2" d="M406.18,-149.91C406.18,-149.91 406.18,-168.79 406.18,-168.79"/>
<polygon fill="black" stroke="black" points="402.68,-168.79 406.18,-178.79 409.68,-168.79 402.68,-168.79"/>
</g>
<!-- FeatureListSearchComponent  -->
<g id="node7" class="node">
<title>FeatureListSearchComponent </title>
<polygon fill="#fb8072" stroke="black" points="366.18,-214.8 179.82,-214.8 179.82,-178.8 366.18,-178.8 366.18,-214.8"/>
<text text-anchor="middle" x="273" y="-192.6" font-family="Times,serif" font-size="14.00">FeatureListSearchComponent </text>
</g>
<!-- FeatureListModule&#45;&gt;FeatureListSearchComponent  -->
<g id="edge6" class="edge">
<title>FeatureListModule&#45;&gt;FeatureListSearchComponent </title>
<path fill="none" stroke="black" stroke-dasharray="5,2" d="M335.34,-149.91C335.34,-149.91 335.34,-168.79 335.34,-168.79"/>
<polygon fill="black" stroke="black" points="331.84,-168.79 335.34,-178.79 338.84,-168.79 331.84,-168.79"/>
</g>
<!-- SharedModule -->
<g id="node5" class="node">
<title>SharedModule</title>
<polygon fill="#8dd3c7" stroke="black" points="682.42,-84.8 679.42,-88.8 658.42,-88.8 655.42,-84.8 583.58,-84.8 583.58,-48.8 682.42,-48.8 682.42,-84.8"/>
<text text-anchor="middle" x="633" y="-62.6" font-family="Times,serif" font-size="14.00">SharedModule</text>
</g>
<!-- SharedModule&#45;&gt;FeatureListModule -->
<g id="edge4" class="edge">
<title>SharedModule&#45;&gt;FeatureListModule</title>
<path fill="none" stroke="black" d="M633,-84.91C633,-104.14 633,-131.8 633,-131.8 633,-131.8 437.93,-131.8 437.93,-131.8"/>
<polygon fill="black" stroke="black" points="437.93,-128.3 427.93,-131.8 437.93,-135.3 437.93,-128.3"/>
</g>
</g>
</svg>
